<?xml version="1.0" encoding="UTF-8" standalone="no"?>
<svg
   xmlns:dc="http://purl.org/dc/elements/1.1/"
   xmlns:cc="http://creativecommons.org/ns#"
   xmlns:rdf="http://www.w3.org/1999/02/22-rdf-syntax-ns#"
   xmlns:svg="http://www.w3.org/2000/svg"
   xmlns="http://www.w3.org/2000/svg"
   xmlns:sodipodi="http://sodipodi.sourceforge.net/DTD/sodipodi-0.dtd"
   xmlns:inkscape="http://www.inkscape.org/namespaces/inkscape"
   width="117.16882"
   height="116.55963"
   viewBox="0 0 11.998087 11.93683"
   preserveAspectRatio="xMinYMin meet"
   version="1.1"
   id="svg3287"
   sodipodi:docname="python-5.svg"
   inkscape:version="1.0 (6e3e5246a0, 2020-05-07)">
  <metadata
     id="metadata3291">
    <rdf:RDF>
      <cc:Work
         rdf:about="">
        <dc:format>image/svg+xml</dc:format>
        <dc:type
           rdf:resource="http://purl.org/dc/dcmitype/StillImage" />
        <dc:title></dc:title>
      </cc:Work>
    </rdf:RDF>
  </metadata>
  <sodipodi:namedview
     inkscape:document-rotation="0"
     pagecolor="#ffffff"
     bordercolor="#666666"
     borderopacity="1"
     objecttolerance="10"
     gridtolerance="10"
     guidetolerance="10"
     inkscape:pageopacity="0"
     inkscape:pageshadow="2"
     inkscape:window-width="1967"
     inkscape:window-height="1122"
     id="namedview3289"
     showgrid="false"
     inkscape:zoom="0.52933616"
     inkscape:cx="632.79611"
     inkscape:cy="211.6179"
     inkscape:window-x="81"
     inkscape:window-y="30"
     inkscape:window-maximized="1"
     inkscape:current-layer="svg3287"
     fit-margin-top="0"
     fit-margin-left="0"
     fit-margin-right="0"
     fit-margin-bottom="0" />
  <defs
     id="defs3281">
    <linearGradient
       x1="24.714632"
       y1="22.897127"
       x2="151.13583"
       y2="148.33623"
       id="a"
       gradientTransform="matrix(0.0469331,0,0,0.04703777,-0.006832,-0.003383)"
       gradientUnits="userSpaceOnUse">
      <stop
         stop-color="#387EB8"
         offset="0%"
         id="stop3271" />
      <stop
         stop-color="#366994"
         offset="100%"
         id="stop3273" />
    </linearGradient>
    <linearGradient
       x1="102.48345"
       y1="103.26573"
       x2="238.2592"
       y2="231.90517"
       id="b"
       gradientTransform="matrix(0.0469331,0,0,0.04703777,-0.006832,-0.003383)"
       gradientUnits="userSpaceOnUse">
      <stop
         stop-color="#FFE052"
         offset="0%"
         id="stop3276" />
      <stop
         stop-color="#FFC331"
         offset="100%"
         id="stop3278" />
    </linearGradient>
  </defs>
  <path
     d="M 5.95637,0 C 2.910211,0 3.100409,1.320994 3.100409,1.320994 l 0.0034,1.368591 H 6.010701 V 3.100473 H 1.949237 C 1.949237,3.100473 0,2.879407 0,5.952956 0,9.026602 1.701342,8.917596 1.701342,8.917596 H 2.716697 V 7.491307 c 0,0 -0.05474,-1.701342 1.674182,-1.701342 H 7.274 c 0,0 1.61982,0.02617 1.61982,-1.565508 V 1.59271 C 8.89382,1.59271 9.139837,0 5.956387,0 Z M 4.353509,0.92035 A 0.52247771,0.52247771 0 0 1 4.876457,1.443298 0.52247771,0.52247771 0 0 1 4.353509,1.966244 0.52247771,0.52247771 0 0 1 3.830561,1.443298 0.52247771,0.52247771 0 0 1 4.353509,0.92035 Z"
     fill="url(#a)"
     id="path3283"
     style="fill:url(#a);stroke-width:0.0469854" />
  <path
     d="m 6.04287,11.93683 c 3.046156,0 2.855961,-1.320994 2.855961,-1.320994 L 8.895431,9.247293 H 5.988516 V 8.836404 h 4.061464 c 0,0 1.949237,0.221066 1.949237,-2.852577 0,-3.073599 -1.701342,-2.964593 -1.701342,-2.964593 H 9.28252 v 1.426244 c 0,0 0.05474,1.701342 -1.674182,1.701342 H 4.72521 c 0,0 -1.61982,-0.02617 -1.61982,1.565553 v 2.631792 c 0,0 -0.24597,1.592665 2.937432,1.592665 z M 7.64573,11.016575 A 0.52247771,0.52247771 0 0 1 7.122782,10.493627 0.52247771,0.52247771 0 0 1 7.64573,9.970631 0.52247771,0.52247771 0 0 1 8.168678,10.493579 0.52247771,0.52247771 0 0 1 7.64573,11.016527 Z"
     fill="url(#b)"
     id="path3285"
     style="fill:url(#b);stroke-width:0.0469854" />
</svg>
